<?xml version="1.0" encoding="utf-8"?>
<!-- Generator: Adobe Illustrator 22.0.1, SVG Export Plug-In . SVG Version: 6.00 Build 0)  -->
<svg version="1.1" xmlns="http://www.w3.org/2000/svg" xmlns:xlink="http://www.w3.org/1999/xlink" x="0px" y="0px"
	 viewBox="0 0 335 162" style="enable-background:new 0 0 335 162;" xml:space="preserve">
<style type="text/css">
	.st0{fill:#C5A92D;}
</style>
<g id="Cropped_Area">
</g>
<g id="The">
	<path class="st0" d="M27.2,102.5l-4.4-0.3h-1.9v18l0.3,5.3h-6.9l0.4-5.3v-18h-1.9l-4.4,0.4v-4.1h18.9V102.5z"/>
	<path class="st0" d="M46.2,125.6H40l0.2-5.3v-8.1c0-0.6-0.2-1.2-0.6-1.7c-0.5-0.7-1.1-1-1.9-1c-0.5,0-1,0.2-1.7,0.7
		c-0.4,0.3-0.8,0.6-1.1,0.9v9.2l0.1,5.3h-6.3l0.3-5.7v-16.2l-0.3-5.3h6.1v9.7c1.5-1.5,3.2-2.3,5.1-2.3c1.7,0,3.1,0.6,4.2,1.7
		c1.1,1.1,1.7,2.5,1.7,4.2V122c0,0.3,0,0.8,0.1,1.5C46.1,124.2,46.2,124.9,46.2,125.6z"/>
	<path class="st0" d="M66.1,122.9c-0.9,1-2.1,1.7-3.4,2.3c-1.3,0.5-2.7,0.8-4.1,0.8c-2.9,0-5.2-0.9-7-2.7c-1.8-1.8-2.7-4.2-2.7-7.3
		c0-2.6,0.7-4.9,2.2-6.8c1.7-2.2,3.9-3.3,6.7-3.3c2.2,0,4.1,0.7,5.5,2.2c1.5,1.5,2.3,3.4,2.5,5.9l-10.7,4.3c0.4,1.4,1,2.5,1.8,3.4
		c0.8,0.9,1.7,1.3,2.8,1.3c1.4,0,2.5-0.3,3.3-1c0.4-0.4,0.9-0.8,1.3-1.2L66.1,122.9z M60.2,111.8c0-0.6-0.3-1.3-0.8-2
		c-0.5-0.7-1.1-1-1.7-1c-1.4,0-2.3,1.1-2.8,3.3c-0.1,0.7-0.2,1.8-0.3,3.3l4.6-1.9C60.1,113.3,60.4,112.7,60.2,111.8z"/>
</g>
<g id="Rosen">
	<path class="st0" d="M98.4,125.6H91l-1.8-3.5l-4.6-7.8h-0.7v6l0.3,5.3h-6.9l0.3-5.3v-16.4l-0.3-5.3h11.1c2.4,0,4.5,0.7,6.1,2
		c1.7,1.4,2.5,3.1,2.5,5.1c0,1.7-0.5,3.2-1.4,4.5c-1.1,1.6-2.8,2.6-5,3.1l5.5,8.8L98.4,125.6z M90.7,105.9c0-1.2-0.5-2.2-1.4-2.9
		c-0.9-0.7-2.2-1.1-3.9-1.1h-1.6v8.7h0.8c2.2,0,3.8-0.5,4.8-1.5C90.3,108.3,90.7,107.2,90.7,105.9z"/>
	<path class="st0" d="M116.2,116c0,3.1-0.8,5.5-2.5,7.3c-1.6,1.8-3.8,2.7-6.5,2.7c-2.4,0-4.5-0.9-6.2-2.6c-1.8-1.9-2.7-4.4-2.7-7.4
		c0-3.1,0.9-5.6,2.7-7.4c1.7-1.7,3.7-2.6,6.2-2.6c2.7,0,4.8,0.9,6.5,2.7C115.3,110.4,116.2,112.9,116.2,116z M110.2,116
		c0-2.4-0.2-4.2-0.7-5.3c-0.5-1.1-1.3-1.6-2.3-1.6c-0.9,0-1.7,0.6-2.2,1.7c-0.5,1.1-0.8,2.9-0.8,5.3c0,2.4,0.3,4.2,0.9,5.3
		c0.5,1,1.2,1.5,2.1,1.5c1,0,1.7-0.5,2.2-1.6C109.9,120.2,110.2,118.4,110.2,116z"/>
	<path class="st0" d="M133.2,119.4c0,1.7-0.7,3.1-2,4.3c-1.5,1.4-3.6,2.2-6.3,2.2c-1.3,0-2.4-0.1-3.6-0.3c-1.1-0.2-2.3-0.6-3.4-1.1
		l0.2-4.9c1,1,2.1,1.8,3.3,2.3c1.2,0.5,2.2,0.8,3.2,0.8c1,0,1.7-0.2,2.3-0.6c0.5-0.4,0.8-0.9,0.7-1.5c0-0.4-0.2-0.8-0.6-1.1
		c-0.4-0.3-0.9-0.6-1.5-0.9l-1.3-0.6c-2.4-1.5-4-2.6-4.7-3.3c-0.7-0.7-1-1.7-1-2.8c0-1.6,0.7-2.9,2-4c1.5-1.2,3.4-1.8,5.8-1.8
		c0.9,0,1.8,0.1,2.8,0.2c1,0.1,1.9,0.3,2.8,0.5l0.2,4.5c-1.1-0.7-2.1-1.3-3.1-1.7c-1-0.4-1.8-0.6-2.6-0.6c-0.8,0-1.4,0.2-1.7,0.5
		c-0.4,0.3-0.6,0.8-0.6,1.3c0,0.5,0.2,0.9,0.5,1.2c0.4,0.3,1,0.7,2,1.2l1.2,0.5c1.8,0.7,3.2,1.6,4.1,2.5
		C132.8,117,133.2,118.2,133.2,119.4z"/>
	<path class="st0" d="M152.1,122.9c-0.9,1-2.1,1.7-3.4,2.3c-1.3,0.5-2.7,0.8-4.1,0.8c-2.9,0-5.2-0.9-7-2.7c-1.8-1.8-2.7-4.2-2.7-7.3
		c0-2.6,0.7-4.9,2.2-6.8c1.7-2.2,3.9-3.3,6.7-3.3c2.2,0,4.1,0.7,5.5,2.2c1.5,1.5,2.3,3.4,2.5,5.9l-10.7,4.3c0.4,1.4,1,2.5,1.8,3.4
		c0.8,0.9,1.7,1.3,2.8,1.3c1.4,0,2.5-0.3,3.3-1c0.4-0.4,0.9-0.8,1.3-1.2L152.1,122.9z M146.2,111.8c0-0.6-0.3-1.3-0.8-2
		c-0.5-0.7-1.1-1-1.7-1c-1.4,0-2.3,1.1-2.8,3.3c-0.1,0.7-0.2,1.8-0.3,3.3l4.6-1.9C146,113.3,146.3,112.7,146.2,111.8z"/>
	<path class="st0" d="M171.4,125.6H165l0.3-5.7v-7.6c0-1.8-0.8-2.7-2.3-2.7c-0.3,0-0.6,0-1,0.1c-0.4,0-0.7,0.2-1,0.3
		c-0.3,0.2-0.7,0.6-1.1,1.3v8.5c0,1.3,0,2.4,0,3.2c0,0.8,0.1,1.7,0.2,2.6h-6.3c0.2-2.1,0.3-4,0.3-5.8v-7.9c0-0.6,0-1.4-0.1-2.4
		c-0.1-1-0.1-2-0.2-3.1h6v1.8c0.7-0.7,1.5-1.2,2.4-1.7c0.9-0.4,1.8-0.7,2.6-0.7c1.7,0,3.2,0.5,4.2,1.5c1.2,1.1,1.8,2.7,1.8,4.7v7.7
		c0,1,0,2,0.1,2.8C171.2,123.5,171.2,124.5,171.4,125.6z"/>
</g>
<g id="Law">
	<path class="st0" d="M201.7,125.6h-16.6l0.2-5.3v-16.4l-0.2-5.3h6.8l-0.3,5.3V122h4.3l5.7-0.2V125.6z"/>
	<path class="st0" d="M220.5,125.6h-6c-0.2-0.5-0.2-1.1-0.2-1.6c-1,0.8-1.8,1.3-2.6,1.6c-0.7,0.3-1.7,0.4-2.7,0.4
		c-1.6,0-3-0.5-4-1.5c-1.1-1-1.6-2.2-1.6-3.7c0-1.8,0.8-3.6,2.5-5.1c2-1.9,4.8-3.1,8.3-3.6c-0.1-0.7-0.2-1.3-0.4-1.6
		c-0.6-1.1-1.8-1.7-3.5-1.7c-0.7,0-1.6,0.2-2.7,0.6c-1.1,0.4-1.9,0.9-2.6,1.3v-4.3c2.1-0.4,4-0.5,5.8-0.5c3,0,5.4,0.6,6.9,1.7
		c1.5,1.1,2.2,2.5,2.2,4.3v8.4c0,1.2,0,2.2,0.1,2.9C220.1,124,220.3,124.8,220.5,125.6z M214.3,121.5v-6.9c-0.4,0.2-0.7,0.4-0.9,0.5
		c-0.2,0.1-0.4,0.2-0.5,0.3c-1,0.5-1.7,1-2.2,1.3c-1.5,1.1-2.2,2.3-2.2,3.5c0,0.7,0.3,1.2,0.9,1.7c0.6,0.5,1.3,0.7,2.1,0.7
		C212.4,122.6,213.3,122.3,214.3,121.5z"/>
	<path class="st0" d="M249.3,106.4c-1,3.8-1.9,7.1-2.7,9.7c-1,3.2-2.1,6.4-3.4,9.5h-4.6l-3-10.9l-3,10.9l-4.6,0
		c-1.3-3.1-2.4-6.2-3.5-9.5c-0.9-2.7-1.8-5.9-2.8-9.6h6.4c0.9,4.2,2,8.5,3.2,12.7l3-12.7h4.7l2.9,12.7c0.5-1.8,1.1-3.8,1.7-6.2
		c0.6-2.3,1.1-4.5,1.6-6.5H249.3z"/>
</g>
<g id="Firm">
	<path class="st0" d="M277.4,102.2l-5.8-0.3h-4.3v8.3h3l4.8-0.3v4l-4.7-0.3h-3v6.7l0.2,5.3h-6.7l0.3-5.3v-16.4l-0.2-5.3h16.5V102.2z
		"/>
	<path class="st0" d="M286.3,101.7c0,1.9-1.1,2.8-3.3,2.8c-1,0-1.8-0.2-2.3-0.5c-0.9-0.5-1.3-1.2-1.3-2.3c0-1.1,0.4-1.8,1.3-2.3
		c0.6-0.4,1.4-0.5,2.4-0.5c1.1,0,1.9,0.3,2.4,0.8C286,100.1,286.3,100.8,286.3,101.7z M285.9,125.6h-6.3l0.3-5.8v-10
		c0-0.4-0.1-1.3-0.2-2.5c0-0.2,0-0.5-0.1-0.8h6V122L285.9,125.6z"/>
	<path class="st0" d="M299.4,110.3c-0.1,0-0.2,0-0.2,0c-0.2,0-0.4,0-0.7,0c-1.1,0-1.9,0.2-2.5,0.6c-1,0.6-1.4,1.6-1.4,3.1v1v7.1
		l0.2,3.6h-6.2l0.3-5.4v-8.2c0-2-0.3-3.8-0.8-5.5h5.9c0.1,0.4,0.2,0.8,0.3,1c0,0.3,0.1,0.6,0.1,1c0.5-0.8,1.1-1.5,2-1.9
		c0.9-0.4,1.9-0.6,3.1-0.6V110.3z"/>
	<path class="st0" d="M328.8,125.6h-6.3l0.3-5V112c0-0.7-0.2-1.3-0.5-1.8c-0.4-0.5-0.9-0.8-1.5-0.8c-0.9-0.1-1.7,0.3-2.6,1.2V122
		l0.2,3.6h-6.2l0.2-3.6v-10.4c0-0.7-0.2-1.2-0.5-1.6c-0.3-0.4-0.8-0.6-1.5-0.6c-0.4,0-0.9,0.1-1.4,0.3c-0.5,0.2-0.9,0.5-1.2,0.8V122
		l0.3,3.6h-6.2l0.2-3.6v-12.1l-0.2-3.5h6v1.4c0.7-0.6,1.6-1.1,2.5-1.5c0.9-0.3,1.8-0.5,2.6-0.5c2.1,0,3.7,0.7,4.6,2.1
		c0.8-0.6,1.7-1.1,2.7-1.5c1-0.4,2-0.6,2.8-0.6c1.7,0,3,0.5,4,1.6c1,1.1,1.5,2.4,1.5,4.1v9.3L328.8,125.6z"/>
</g>
<g id="INVESTOR_COUNSEL">
	<path class="st0" d="M49.5,153.4h-2.7l0.1-2.1v-6.5l-0.1-2.1h2.7l-0.1,2.1v6.5L49.5,153.4z"/>
	<path class="st0" d="M66.9,142.6l-0.1,2.1v6.5l0.1,2.1h-2l-4.6-7.3v5.1l0.1,2.1h-1.7l0.1-2.1v-6.5l-0.1-2.1h2.1l4.5,7.1l0-5
		l-0.1-2.1L66.9,142.6z"/>
	<path class="st0" d="M84.2,142.6l-0.8,2.1l-2.6,7.8l0.3,0.8h-2.6l-2.9-8.7l-0.8-2.1h2.9l0.6,2.1l1.8,5.6l1.8-5.6l0.6-2.1H84.2z"/>
	<path class="st0" d="M99,153.4h-7l0.1-2.1v-6.5l-0.1-2.2h6.7v1.5l-2.5-0.1h-1.6v3.2h1.2c0.2,0,0.5,0,0.9,0c0.4,0,0.8,0,1.1-0.1v1.6
		c-0.3,0-0.6-0.1-0.9-0.1c-0.3,0-0.7,0-1.1,0h-1.2v3.4h2.1l2.3-0.1V153.4z"/>
	<path class="st0" d="M114.5,150.1c0,0.9-0.3,1.7-1,2.4c-0.8,0.7-1.8,1.1-3,1.1c-0.9,0-1.6-0.1-2.3-0.4c-0.2-0.1-0.5-0.2-0.8-0.4
		v-2.1c0.4,0.5,0.9,0.8,1.5,1.1c0.5,0.2,1,0.3,1.5,0.3c0.5,0,1-0.1,1.3-0.4c0.3-0.3,0.5-0.7,0.5-1.1c0-0.3-0.1-0.6-0.4-0.8
		c-0.2-0.3-0.6-0.5-1-0.7l-0.8-0.4c-0.9-0.4-1.6-0.9-2-1.5c-0.4-0.5-0.5-1.1-0.5-1.7c0-0.8,0.4-1.5,1.2-2.2c0.8-0.6,1.7-0.9,2.8-0.9
		c0.3,0,0.8,0.1,1.4,0.2c0.2,0.1,0.5,0.1,0.9,0.2v2.1c-0.4-0.4-0.8-0.7-1.3-0.9c-0.4-0.2-0.8-0.3-1.2-0.3c-0.5,0-0.9,0.1-1.1,0.4
		c-0.3,0.3-0.4,0.6-0.4,1c0,0.3,0.1,0.5,0.3,0.7c0.2,0.2,0.6,0.4,1.1,0.7l0.9,0.5C113.7,147.8,114.5,148.8,114.5,150.1z"/>
	<path class="st0" d="M129.8,144.3l-1.7-0.1h-0.8v7.2l0.1,2.1h-2.8l0.1-2.1v-7.2H124l-1.8,0.1v-1.6h7.5V144.3z"/>
	<path class="st0" d="M146.6,148.1c0,1.8-0.4,3.1-1.2,4.1s-1.9,1.4-3.3,1.4c-1.4,0-2.5-0.5-3.3-1.5c-0.8-1-1.2-2.4-1.2-4
		c0-1.8,0.4-3.2,1.2-4.2c0.8-1,1.9-1.4,3.3-1.4c1.3,0,2.4,0.5,3.2,1.4C146.1,144.9,146.6,146.3,146.6,148.1z M144,148.1
		c0-1.5-0.2-2.6-0.5-3.2c-0.3-0.7-0.8-1-1.4-1c-0.6,0-1,0.3-1.3,0.8c-0.4,0.7-0.6,1.8-0.6,3.4c0,1.5,0.2,2.5,0.5,3.2
		c0.3,0.7,0.8,1,1.4,1c0.7,0,1.2-0.4,1.5-1.2C143.8,150.4,144,149.4,144,148.1z"/>
	<path class="st0" d="M163.9,153.4h-3l-0.7-1.4l-1.9-3.1h-0.3v2.4l0.1,2.1h-2.7l0.1-2.1v-6.5l-0.1-2.1h4.4c1,0,1.8,0.3,2.4,0.8
		c0.7,0.5,1,1.2,1,2c0,0.7-0.2,1.3-0.6,1.8c-0.5,0.6-1.1,1-2,1.2l2.2,3.5L163.9,153.4z M160.8,145.6c0-0.5-0.2-0.9-0.6-1.2
		c-0.4-0.3-0.9-0.4-1.5-0.4h-0.6v3.5h0.3c0.9,0,1.5-0.2,1.9-0.6C160.6,146.6,160.8,146.1,160.8,145.6z"/>
	<path class="st0" d="M192.5,152.1c-0.5,0.5-1.1,0.9-1.8,1.2c-0.6,0.2-1.2,0.3-1.8,0.3c-1.4,0-2.6-0.5-3.5-1.5
		c-0.9-1-1.4-2.2-1.4-3.8c0-1.6,0.5-2.9,1.4-4c1-1.2,2.4-1.9,4.2-1.9c0.7,0,1.5,0.2,2.3,0.5v2.6c-0.5-0.6-0.9-1-1.2-1.2
		c-0.4-0.3-0.8-0.5-1.3-0.5c-0.8,0-1.5,0.3-2,1c-0.5,0.7-0.8,1.7-0.8,3.1c0,1.1,0.2,2.1,0.6,2.8c0.5,1,1.3,1.5,2.3,1.5
		c0.4,0,0.8-0.1,1.3-0.4c0.4-0.2,0.7-0.4,1-0.7L192.5,152.1z"/>
	<path class="st0" d="M209.6,148.1c0,1.8-0.4,3.1-1.2,4.1c-0.8,1-1.9,1.4-3.3,1.4c-1.4,0-2.5-0.5-3.3-1.5c-0.8-1-1.2-2.4-1.2-4
		c0-1.8,0.4-3.2,1.2-4.2c0.8-1,1.9-1.4,3.3-1.4c1.3,0,2.4,0.5,3.2,1.4C209.2,144.9,209.6,146.3,209.6,148.1z M207,148.1
		c0-1.5-0.2-2.6-0.5-3.2c-0.3-0.7-0.8-1-1.4-1c-0.6,0-1,0.3-1.3,0.8c-0.4,0.7-0.6,1.8-0.6,3.4c0,1.5,0.2,2.5,0.5,3.2
		c0.3,0.7,0.8,1,1.4,1c0.7,0,1.2-0.4,1.5-1.2C206.8,150.4,207,149.4,207,148.1z"/>
	<path class="st0" d="M226.5,142.6l-0.1,2.1l0,5.4c0,1-0.3,1.9-1,2.5c-0.7,0.6-1.6,0.9-2.8,0.9c-1.1,0-2.1-0.3-2.8-0.9
		c-0.8-0.6-1.2-1.5-1.2-2.5v-5.4l-0.1-2.1h2.8l-0.1,2.1v5.3c0,1.4,0.6,2.1,1.9,2.1c1.3,0,2-0.7,2-2v-5.3l-0.1-2.1H226.5z"/>
	<path class="st0" d="M243.9,142.6l-0.1,2.1v6.5l0.1,2.1h-2l-4.6-7.3v5.1l0.1,2.1h-1.7l0.1-2.1v-6.5l-0.1-2.1h2.1l4.5,7.1l0-5
		l-0.1-2.1L243.9,142.6z"/>
	<path class="st0" d="M259.9,150.1c0,0.9-0.3,1.7-1,2.4c-0.8,0.7-1.8,1.1-3,1.1c-0.9,0-1.6-0.1-2.3-0.4c-0.2-0.1-0.5-0.2-0.8-0.4
		v-2.1c0.4,0.5,0.9,0.8,1.5,1.1c0.5,0.2,1,0.3,1.5,0.3c0.5,0,1-0.1,1.3-0.4c0.3-0.3,0.5-0.7,0.5-1.1c0-0.3-0.1-0.6-0.4-0.8
		c-0.2-0.3-0.6-0.5-1-0.7l-0.8-0.4c-0.9-0.4-1.6-0.9-2-1.5c-0.4-0.5-0.5-1.1-0.5-1.7c0-0.8,0.4-1.5,1.2-2.2c0.8-0.6,1.7-0.9,2.8-0.9
		c0.3,0,0.8,0.1,1.4,0.2c0.2,0.1,0.5,0.1,0.9,0.2v2.1c-0.4-0.4-0.8-0.7-1.3-0.9c-0.4-0.2-0.8-0.3-1.2-0.3c-0.5,0-0.8,0.1-1.1,0.4
		c-0.3,0.3-0.4,0.6-0.4,1c0,0.3,0.1,0.5,0.3,0.7c0.2,0.2,0.6,0.4,1.1,0.7l0.9,0.5C259.2,147.8,259.9,148.8,259.9,150.1z"/>
	<path class="st0" d="M275.8,153.4h-7l0.1-2.1v-6.5l-0.1-2.2h6.7v1.5l-2.5-0.1h-1.6v3.2h1.2c0.2,0,0.5,0,0.9,0c0.4,0,0.8,0,1.1-0.1
		v1.6c-0.3,0-0.6-0.1-0.9-0.1c-0.3,0-0.7,0-1.1,0h-1.2v3.4h2.1l2.3-0.1V153.4z"/>
	<path class="st0" d="M291.1,153.4h-6.6l0.1-2.1v-6.5l-0.1-2.1h2.7l-0.1,2.1v7.2h1.7l2.3-0.1V153.4z"/>
</g>
<g id="Line">
	<polygon class="st0" points="33.8,131.7 33.8,132.9 33.8,134.1 33.8,135.3 303.6,135.3 303.6,134.1 303.6,132.9 303.6,131.7 	"/>
</g>
<g id="Icon">
	<path class="st0" d="M226.8,89.2c-2.2-0.7-4.2-1.5-6-2.3c-3.9-1.7-7.9-4.1-12-7.1l-0.4-0.3l-1-0.8l0.8-0.5
		c11.4-7.8,17.7-18,17.7-28.7c0-23-29-41.8-64.6-41.8c-10.7,0-21.1,1.8-30.4,5c7.1-1.9,14.7-2.9,22.5-2.9c32.9,0,59.6,17.5,59.6,39
		c0,8-3.8,15.2-9.2,20.9c-0.5,0.5-1.1,1.1-1.6,1.6c-0.5,0.5-0.9,1.3-1.6,1.5c-0.5-0.5-1.1-0.9-1.7-1.4c-0.4-0.4-0.9-0.8-1.3-1.1
		c-1.2-1-2.4-1.9-3.6-2.9c-2.2-1.7-4.4-3.4-6.7-5c-0.1-0.1-0.3-0.2-0.4-0.3c-2.1-1.4-4.3-2.6-6.5-3.7c-2-1-4-2.2-6.1-3.1
		c-0.5-0.2-1-0.6-1.5-0.7c0.7-0.3,1.8-0.3,2.5-0.5c1-0.2,1.9-0.4,2.8-0.7c1.9-0.5,3.8-1.1,5.7-1.7c7.7-2.3,12.1-8.4,12.5-13.2
		c0.9-10.9-14.9-21.3-35.4-23.1c-28.8-2.6-56.7,10.7-62.2,29.7c-2.4,8.1-0.6,16.3,5.2,23.6c0,0,0.1,0.1,0.1,0.1
		c1.5,1.9,3.3,3.7,5.3,5.4l0.6,0.5c5.6,4.7,12.6,8.5,20.3,11.2c2.7,0.9,5.4,1.8,8.3,2.4c7.1,1.7,14.7,2.6,22.6,2.6
		c8.3,0,16.5-1,24.2-3.1l0.2,0l0.2,0l2,0.5c5.3,1.1,10.8,1.8,16.2,2l0.7,0c0.6,0,1.2,0.1,1.9,0.1c1.7,0.1,3.7,0.1,5.7,0.2
		c-4.6-0.6-9.2-1.6-13.5-2.9c-2.3-0.7-4.4-1.5-6.3-2.2c-10-4.1-17.3-9.9-25.1-16.6l-0.6-0.5c-1.3-1.1-2.6-2.2-4-3.3
		c-2.4-2-4.9-3.8-7.6-5.5c-0.2-0.1-0.5-0.3-0.7-0.4c-1.2-0.7-2.5-1.4-3.7-2c-1-0.5-2-0.9-3-1.3c-1.7-0.6-3.8-1.8-5.6-2
		c1.2,0.1,3.7-0.7,4.9-1.1c1.1-0.4,2.2-0.6,3.3-0.8c0.2,0,0.3-0.1,0.5-0.1c1.2-0.3,2.4-0.6,3.7-0.9c1.8-0.5,3.6-1,5.3-1.6
		c0.2-0.1,0.4-0.1,0.6-0.2c0.1,0,0.1,0,0.2-0.1c0.2-0.1,0.4-0.1,0.6-0.2c0.1,0,0.2-0.1,0.3-0.1c0.4-0.1,0.8-0.3,1.2-0.4
		c2.6-0.9,5.1-2,7.4-3.5c0.3-0.2,0.6-0.4,0.9-0.7c3.8-2.8,6.2-6.3,6.6-9.7c0.3-2.5-0.3-4.9-2-7c-1.5-1.9-3.4-3.5-5.4-4.8
		c-1.5-1-3.3-2-5-2.7c2,0,3.8,0.2,5.8,0.5c2.9,0.4,5.9,1.6,8.5,2.8c5.9,2.7,10,8.5,10,13.9c0,0.3,0,0.6,0,0.9
		c-0.4,4.3-3.2,8.1-8.2,11c-3.3,1.9-7,3.3-10.7,4l-3.8,0.8c-1.4,0.3-2.7,0.6-4.1,0.8c-0.2,0-0.3,0.1-0.5,0.1
		c0.2,0.1,0.3,0.1,0.5,0.2c6.7,2.3,11.3,6.9,15.4,11.2c0,0,3.9,3.9,3.9,3.9c5,4.9,10.9,9.5,17,13c3.3,1.9,6.8,3.5,10.4,4.7
		c2.6,0.9,5.3,1.6,7.9,2.2c4.7,1,9.5,1.6,14.4,1.8l0.6,0c2,0.1,4.7,0.2,7.4,0.2C235.4,91.5,231,90.5,226.8,89.2z M167.9,34
		c0,0.5,0,1-0.1,1.5c-1.1,7.2-10.2,11.8-15.5,13.9c-3.2,1.2-6.7,2.3-10.4,3c0,0-0.1,0-0.1,0c-0.8,0.2-1.5,0.3-2.3,0.5l-0.5,0.1
		c-2.9,0.5-6.1,1.1-8.7,1.3c-0.1,0-0.3,0-0.4,0c0.1,0.1,0.3,0.1,0.4,0.2c7.5,3.1,12.6,7.4,17.9,12l3.3,2.8
		c5.6,4.7,13.3,10.5,22.5,14.7l1.9,0.8l-2,0.5c-3.1,0.7-6.2,1.2-9.2,1.5c-5.1,0.5-10.4,0.4-16.2-0.4c-16.1-2-29.6-9.3-36.2-19.4
		c-4.2-6.4-5.3-13.4-3.3-20.3c2.5-8.5,10.1-16.4,20.8-21.4c10.9-5.2,25.3-8.3,32.9-1.8C166,26.5,167.9,30.3,167.9,34z"/>
</g>
</svg>
